<?xml version="1.0" standalone="no"?>
<!DOCTYPE svg PUBLIC "-//W3C//DTD SVG 20010904//EN"
 "http://www.w3.org/TR/2001/REC-SVG-20010904/DTD/svg10.dtd">
<svg version="1.0" xmlns="http://www.w3.org/2000/svg"
 width="329.000000pt" height="329.000000pt" viewBox="0 0 329.000000 329.000000"
 preserveAspectRatio="xMidYMid meet">
<metadata>
Created by potrace 1.14, written by Peter Selinger 2001-2017
</metadata>
<g transform="translate(0.000000,329.000000) scale(0.100000,-0.100000)"
fill="#000000" stroke="none">
<path d="M30 1649 l0 -441 53 7 c96 12 87 -13 88 248 l0 232 45 -130 c25 -71
60 -170 77 -220 l32 -90 38 1 c20 0 54 1 76 2 l39 2 -1 415 0 414 -68 0 -69 0
-2 -242 -3 -242 -33 95 c-19 52 -57 160 -87 240 l-53 145 -66 2 -66 2 0 -440z"/>
<path d="M610 1684 l0 -406 78 6 c42 3 118 8 167 12 50 4 100 7 112 8 19 0 22
6 25 64 2 35 1 66 -1 68 -3 2 -59 2 -125 -2 l-121 -6 3 101 3 101 90 0 c49 0
89 3 90 8 0 4 1 35 2 69 l2 62 -90 -2 -90 -2 -3 93 -3 92 120 0 c69 0 121 4
123 10 2 5 1 36 0 69 l-4 60 -189 0 -189 0 0 -405z"/>
<path d="M1078 2074 c-2 -9 -1 -41 0 -70 l4 -54 69 0 c68 0 69 0 70 -27 0 -16
0 -156 1 -313 l0 -285 26 -5 c14 -3 45 -3 69 -1 l43 3 1 102 c0 55 0 196 -1
313 l0 212 72 3 73 3 0 65 0 65 -212 2 c-188 3 -212 1 -215 -13z"/>
<path d="M1592 1707 l3 -382 65 0 65 0 3 157 3 157 89 -2 c53 -1 91 2 93 8 3
9 1 103 -2 123 0 4 -41 7 -91 6 l-90 -1 0 88 0 88 123 3 122 3 0 65 0 65 -193
2 -192 1 2 -381z"/>
<path d="M2063 1705 c0 -273 3 -385 11 -386 34 -2 136 -8 241 -13 l121 -6 -1
67 c0 77 11 70 -137 75 l-97 3 0 235 c0 129 0 274 0 323 l-1 87 -68 0 -69 0 0
-385z"/>
<path d="M2549 2060 c-2 -153 0 -762 3 -765 2 -3 32 -7 65 -11 45 -4 61 -2 65
8 2 7 4 189 4 403 l-1 390 -67 2 -68 2 -1 -29z"/>
<path d="M2821 2037 c12 -29 48 -122 81 -208 l60 -156 -20 -44 c-57 -124 -152
-352 -149 -355 2 -2 32 -8 66 -12 49 -7 66 -6 77 5 8 8 14 19 14 24 0 6 10 31
21 57 12 26 30 67 41 91 10 24 20 42 22 40 4 -3 57 -137 88 -221 6 -16 16 -28
22 -29 6 0 20 -2 31 -4 11 -2 41 -6 67 -8 l47 -5 -21 55 c-11 30 -51 134 -89
231 -65 168 -67 177 -54 207 57 121 162 376 156 378 -12 7 -111 8 -129 3 -12
-4 -34 -44 -62 -111 -24 -58 -46 -105 -49 -105 -3 0 -24 48 -47 108 l-41 107
-76 2 -76 1 20 -51z"/>
</g>
</svg>
